# xmcd
#
# Track frame offsets:
#	150
#	27105
#	50000
#	67784
#	96110
#	110376
#	133309
#	148883
#	178515
#	195986
#	215529
#
# Disc length: 3077 seconds
#
# Revision: 1
# Processed by: cddbd v1.5.2PL0 Copyright (c) Steve Scherf et al.
# Submitted via: EasyCDDAExtractor 8.2.3.1
#
DISCID=9d0c030b
DTITLE=INNES SIBUN - Stardust
DYEAR=1997
DGENRE=Blues
TTITLE0=Your star will shine
TTITLE1=Free me
TTITLE2=Like a rainbow
TTITLE3=Have you ever loved a woman
TTITLE4=Hard times
TTITLE5=I didn't mean to do wrong
TTITLE6=Quiet by your side
TTITLE7=My little hurricane
TTITLE8=That's alright
TTITLE9=Fun missing you
TTITLE10=Midnight train
EXTD=
EXTT0=
EXTT1=
EXTT2=
EXTT3=
EXTT4=
EXTT5=
EXTT6=
EXTT7=
EXTT8=
EXTT9=
EXTT10=
PLAYORDER=
